<?xml version="1.0" encoding="UTF-8" standalone="no"?>
<!DOCTYPE svg PUBLIC "-//W3C//DTD SVG 1.1//EN" "http://www.w3.org/Graphics/SVG/1.1/DTD/svg11.dtd">
<svg version="1.1" xmlns="http://www.w3.org/2000/svg" xmlns:xlink="http://www.w3.org/1999/xlink" preserveAspectRatio="xMidYMid meet" viewBox="0 0 560 321" width="560" height="321"><defs><path d="M68.87 11.89C53.11 -3.97 27.57 -3.97 11.81 11.89C-3.94 27.75 -3.94 53.46 11.81 69.32C35.58 93.22 225.68 284.37 249.44 308.26C257.84 316.71 269.01 320.52 280 319.96C290.99 320.52 302.16 316.71 310.55 308.26C334.32 284.37 524.42 93.22 548.18 69.32C563.94 53.46 563.94 27.75 548.18 11.89C532.43 -3.97 506.88 -3.97 491.13 11.89C477.06 26.05 406.68 96.81 280 224.19C153.32 96.81 82.94 26.05 68.87 11.89Z" id="a1p1zTN2a2"></path></defs><g><g><g><use xlink:href="#a1p1zTN2a2" opacity="1" fill="#ffffff" fill-opacity="1"></use><g><use xlink:href="#a1p1zTN2a2" opacity="1" fill-opacity="0" stroke="#000000" stroke-width="1" stroke-opacity="0"></use></g></g></g></g></svg>